<svg width="62" height="113" viewBox="0 0 62 113" fill="none" xmlns="http://www.w3.org/2000/svg">
<path d="M0.0253435 106.689C0.0206306 105.864 0.176868 105.045 0.485104 104.281C0.79334 103.516 1.24752 102.821 1.82157 102.235L47.0369 56.4946L1.82157 10.7548C0.655242 9.5733 1.5474e-06 7.97087 1.52747e-06 6.3C1.50755e-06 4.62914 0.655242 3.02671 1.82157 1.84523C2.9879 0.66375 4.56978 6.84849e-07 6.21922 6.65179e-07C7.86866 6.4551e-07 9.45053 0.663749 10.6169 1.84523L60.1679 52.0399C60.7484 52.6232 61.2092 53.3171 61.5236 54.0817C61.8381 54.8463 62 55.6664 62 56.4946C62 57.3229 61.8381 58.143 61.5236 58.9076C61.2092 59.6722 60.7484 60.3661 60.1679 60.9494L10.6169 111.144C10.0411 111.732 9.35602 112.199 8.60124 112.517C7.84646 112.836 7.03688 113 6.21922 113C5.40155 113 4.59198 112.836 3.8372 112.517C3.08242 112.199 2.39737 111.732 1.82157 111.144C1.24752 110.558 0.79334 109.863 0.485104 109.098C0.176869 108.334 0.0206306 107.515 0.0253435 106.689Z" fill="#FF2C2C"/>
</svg>
