<svg width="22" height="12" viewBox="0 0 22 12" fill="none" xmlns="http://www.w3.org/2000/svg">
<path d="M1.22863 0.00490388C1.3894 0.00399219 1.54876 0.0342313 1.6976 0.0938903C1.84643 0.153548 1.98179 0.241454 2.09593 0.352561L11.001 9.10391L19.9062 0.352563C20.1362 0.126822 20.4482 1.77168e-06 20.7735 1.80012e-06C21.0988 1.82856e-06 21.4107 0.126822 21.6408 0.352563C21.8708 0.578304 22 0.884474 22 1.20372C22 1.52297 21.8708 1.82914 21.6408 2.05488L11.8683 11.6454C11.7548 11.7578 11.6197 11.8469 11.4708 11.9078C11.322 11.9687 11.1623 12 11.001 12C10.8398 12 10.6801 11.9687 10.5313 11.9078C10.3824 11.8469 10.2473 11.7578 10.1337 11.6454L0.361333 2.05488C0.246838 1.94343 0.155961 1.81084 0.0939435 1.66475C0.031928 1.51867 -9.77343e-07 1.36198 -9.63508e-07 1.20372C-9.49673e-07 1.04546 0.0319281 0.888769 0.0939436 0.742682C0.155961 0.596596 0.246839 0.464006 0.361333 0.352561C0.475474 0.241454 0.610841 0.153548 0.759671 0.0938902C0.908502 0.0342312 1.06787 0.00399216 1.22863 0.00490388Z" fill="white"/>
</svg>
