<svg width="114" height="114" viewBox="0 0 114 114" fill="none" xmlns="http://www.w3.org/2000/svg">
<path fill-rule="evenodd" clip-rule="evenodd" d="M57 0C88.4591 0 114 25.5409 114 57C114 88.4591 88.4591 114 57 114C25.5409 114 0 88.4591 0 57C0 25.5409 25.5409 0 57 0ZM57 21.375C47.3249 21.375 46.1117 21.416 42.3118 21.5894C38.52 21.7624 35.9303 22.3647 33.6641 23.2453C31.3215 24.1558 29.3347 25.3739 27.3542 27.3544C25.3737 29.335 24.1555 31.3217 23.2451 33.6643C22.3645 35.9303 21.7624 38.52 21.5892 42.3118C21.416 46.1117 21.375 47.3249 21.375 57C21.375 66.6751 21.416 67.8883 21.5892 71.6882C21.7624 75.48 22.3645 78.0697 23.2451 80.3357C24.1555 82.6783 25.3737 84.665 27.3542 86.6458C29.3347 88.6263 31.3215 89.8445 33.6641 90.7549C35.9303 91.6353 38.52 92.2376 42.3118 92.4106C46.1117 92.584 47.3249 92.625 57 92.625C66.6751 92.625 67.8883 92.584 71.6882 92.4106C75.48 92.2376 78.0697 91.6353 80.3357 90.7549C82.6783 89.8445 84.665 88.6263 86.6458 86.6458C88.6263 84.665 89.8445 82.6783 90.7549 80.3357C91.6353 78.0697 92.2376 75.48 92.4106 71.6882C92.584 67.8883 92.625 66.6751 92.625 57C92.625 47.3249 92.584 46.1117 92.4106 42.3118C92.2376 38.52 91.6353 35.9303 90.7549 33.6643C89.8445 31.3217 88.6263 29.335 86.6458 27.3544C84.665 25.3739 82.6783 24.1558 80.3357 23.2453C78.0697 22.3647 75.48 21.7624 71.6882 21.5894C67.8883 21.416 66.6751 21.375 57 21.375ZM57 27.794C66.5123 27.794 67.639 27.8303 71.3956 28.0017C74.8691 28.1602 76.7552 28.7405 78.0105 29.2283C79.6735 29.8745 80.8603 30.6466 82.1067 31.8933C83.3536 33.1397 84.1255 34.3267 84.7717 35.9895C85.2595 37.2448 85.84 39.1309 85.9983 42.6044C86.1698 46.361 86.206 47.4877 86.206 57C86.206 66.5123 86.1698 67.639 85.9983 71.3956C85.84 74.8691 85.2595 76.7552 84.7717 78.0105C84.1255 79.6735 83.3536 80.8603 82.1067 82.1067C80.8603 83.3536 79.6735 84.1255 78.0105 84.7717C76.7552 85.2595 74.8691 85.84 71.3956 85.9983C67.6396 86.1698 66.513 86.206 57 86.206C47.487 86.206 46.3606 86.1698 42.6044 85.9983C39.1309 85.84 37.2448 85.2595 35.9895 84.7717C34.3265 84.1255 33.1397 83.3536 31.8931 82.1067C30.6464 80.8603 29.8745 79.6735 29.2283 78.0105C28.7405 76.7552 28.16 74.8691 28.0015 71.3956C27.83 67.639 27.794 66.5123 27.794 57C27.794 47.4877 27.83 46.361 28.0015 42.6044C28.16 39.1309 28.7405 37.2448 29.2283 35.9895C29.8745 34.3267 30.6464 33.1397 31.8931 31.8933C33.1397 30.6466 34.3265 29.8745 35.9895 29.2283C37.2448 28.7405 39.1309 28.1602 42.6044 28.0017C46.361 27.8303 47.4877 27.794 57 27.794ZM57 38.7061C46.8965 38.7061 38.7061 46.8965 38.7061 57C38.7061 67.1035 46.8965 75.2939 57 75.2939C67.1035 75.2939 75.2939 67.1035 75.2939 57C75.2939 46.8965 67.1035 38.7061 57 38.7061ZM57 68.8749C50.4417 68.8749 45.1251 63.5583 45.1251 57C45.1251 50.4417 50.4417 45.1251 57 45.1251C63.5583 45.1251 68.8749 50.4417 68.8749 57C68.8749 63.5583 63.5583 68.8749 57 68.8749ZM80.2918 37.9834C80.2918 40.3444 78.3777 42.2582 76.0166 42.2582C73.6558 42.2582 71.7419 40.3444 71.7419 37.9834C71.7419 35.6223 73.6558 33.7084 76.0166 33.7084C78.3777 33.7084 80.2918 35.6223 80.2918 37.9834Z" fill="#FF2C2C"/>
</svg>
